<svg width="26" height="33" viewBox="0 0 26 33" fill="none" xmlns="http://www.w3.org/2000/svg">
<path d="M24.9577 21.4828C25.5096 25.5299 23.5067 30.274 19.9299 31.625C16.3531 32.976 12.1134 32.7218 8.492 31.843C3.96231 30.7437 1.51855 28.6326 1.02938 24.9813C0.540199 21.3299 3.55585 16.9313 5.51162 13.8947C7.46739 10.8581 9.61969 9.48829 9.60074 8.60699C9.58179 7.72569 6.97842 5.80139 5.91047 4.15442C4.84252 2.50746 6.93984 1.19503 10.6841 0.50022C14.4284 -0.194593 17.5808 -0.490533 17.7867 1.69684C17.9925 3.88422 15.0007 9.15338 15.4368 9.48884C15.8729 9.8243 18.9703 11.4569 20.3457 12.9329C21.7211 14.4089 24.4058 17.4357 24.9577 21.4828Z" fill="#FFA63F"/>
</svg>
