<svg width="21" height="25" viewBox="0 0 21 25" fill="none" xmlns="http://www.w3.org/2000/svg">
<path d="M5.53149 3.8749C4.29529 3.87586 3.64732 3.89157 3.14504 4.14749C2.67434 4.38731 2.29165 4.77 2.05183 5.2407C1.77917 5.77581 1.77917 6.4763 1.77917 7.87731V19.8847C1.77917 21.2857 1.77917 21.9863 2.05183 22.5213C2.29165 22.992 2.67434 23.3747 3.14504 23.6145C3.68015 23.8872 4.38064 23.8872 5.78165 23.8872H15.2875C16.6885 23.8872 17.3891 23.8872 17.9241 23.6145C18.3948 23.3747 18.7775 22.992 19.0173 22.5213C19.29 21.9863 19.29 21.2857 19.29 19.8847V7.87731C19.29 6.4763 19.29 5.77581 19.0173 5.2407C18.7775 4.77 18.3948 4.38731 17.9241 4.14749C17.4218 3.89157 16.7739 3.87586 15.5377 3.8749M5.53149 3.8749V6.37638H15.5377V3.8749M5.53149 3.8749V3.5085C5.53149 2.9422 5.75646 2.3991 6.15688 1.99868C6.5573 1.59825 7.1004 1.37329 7.6667 1.37329H13.4025C13.9687 1.37329 14.5119 1.59825 14.9123 1.99868C15.3127 2.3991 15.5377 2.9422 15.5377 3.5085V3.8749M10.5346 11.3795V18.8841M10.5346 11.3795L13.0361 13.881M10.5346 11.3795L8.03304 13.881" stroke="#FFA63F" stroke-width="2" stroke-linecap="round" stroke-linejoin="round"/>
</svg>
