<svg width="22" height="27" viewBox="0 0 22 27" fill="none" xmlns="http://www.w3.org/2000/svg">
<path d="M5.60597 4.25244C4.28165 4.25347 3.58749 4.2703 3.04941 4.54446C2.54516 4.80138 2.13519 5.21135 1.87827 5.7156C1.58618 6.28885 1.58618 7.03928 1.58618 8.54015V21.4035C1.58618 22.9043 1.58618 23.6548 1.87827 24.2281C2.13519 24.7323 2.54516 25.1423 3.04941 25.3992C3.62266 25.6913 4.37309 25.6913 5.87396 25.6913H16.0574C17.5583 25.6913 18.3088 25.6913 18.882 25.3992C19.3862 25.1423 19.7962 24.7323 20.0531 24.2281C20.3452 23.6548 20.3452 22.9043 20.3452 21.4035V8.54015C20.3452 7.03928 20.3452 6.28885 20.0531 5.7156C19.7962 5.21135 19.3862 4.80138 18.882 4.54446C18.3439 4.2703 17.6498 4.25347 16.3254 4.25244M5.60597 4.25244V6.93223H16.3254V4.25244M5.60597 4.25244V3.85992C5.60597 3.25325 5.84697 2.67144 6.27594 2.24248C6.70491 1.81351 7.28672 1.57251 7.89338 1.57251H14.038C14.6446 1.57251 15.2265 1.81351 15.6555 2.24248C16.0844 2.67144 16.3254 3.25325 16.3254 3.85992V4.25244" stroke="#AE3D00" stroke-width="2" stroke-linecap="round" stroke-linejoin="round"/>
</svg>
