<svg width="41" height="41" viewBox="0 0 41 41" fill="none" xmlns="http://www.w3.org/2000/svg">
<rect x="0.96582" y="0.631836" width="40" height="40" rx="9" fill="#FFD5A4"/>
<path d="M15.606 11.2524C14.2817 11.2535 13.5875 11.2703 13.0494 11.5445C12.5452 11.8014 12.1352 12.2113 11.8783 12.7156C11.5862 13.2889 11.5862 14.0393 11.5862 15.5402V28.4035C11.5862 29.9043 11.5862 30.6548 11.8783 31.2281C12.1352 31.7323 12.5452 32.1423 13.0494 32.3992C13.6227 32.6913 14.3731 32.6913 15.874 32.6913H26.0574C27.5583 32.6913 28.3088 32.6913 28.882 32.3992C29.3862 32.1423 29.7962 31.7323 30.0531 31.2281C30.3452 30.6548 30.3452 29.9043 30.3452 28.4035V15.5402C30.3452 14.0393 30.3452 13.2889 30.0531 12.7156C29.7962 12.2113 29.3862 11.8014 28.882 11.5445C28.3439 11.2703 27.6498 11.2535 26.3254 11.2524M15.606 11.2524V13.9322H26.3254V11.2524M15.606 11.2524V10.8599C15.606 10.2533 15.847 9.67144 16.2759 9.24248C16.7049 8.81351 17.2867 8.57251 17.8934 8.57251H24.038C24.6446 8.57251 25.2265 8.81351 25.6555 9.24248C26.0844 9.67144 26.3254 10.2533 26.3254 10.8599V11.2524" stroke="#AE3D00" stroke-width="2" stroke-linecap="round" stroke-linejoin="round"/>
</svg>
