<svg width="42" height="43" viewBox="0 0 42 43" fill="none" xmlns="http://www.w3.org/2000/svg">
<rect x="0.182861" y="0.281494" width="41.7446" height="41.7446" rx="9" fill="#FFD5A4"/>
<path d="M10.8329 30.0983V13.7427C10.8329 12.3115 10.8329 11.5958 11.1114 11.0492C11.3564 10.5683 11.7474 10.1774 12.2282 9.93235C12.7749 9.65381 13.4905 9.65381 14.9218 9.65381H27.1884C28.6197 9.65381 29.3354 9.65381 29.882 9.93235C30.3628 10.1774 30.7538 10.5683 30.9988 11.0492C31.2773 11.5958 31.2773 12.3115 31.2773 13.7427V27.5427H13.3884C11.977 27.5427 10.8329 28.6868 10.8329 30.0983ZM10.8329 30.0983C10.8329 31.5097 11.977 32.6538 13.3884 32.6538H31.2773M17.2218 14.7649H24.8884M17.2218 19.876H24.8884M29.9996 27.5427V32.6538" stroke="#AE3D00" stroke-width="2" stroke-linecap="round" stroke-linejoin="round"/>
</svg>
