<svg width="24" height="26" viewBox="0 0 24 26" fill="none" xmlns="http://www.w3.org/2000/svg">
<path d="M1.83289 22.0983V5.7427C1.83289 4.31146 1.83289 3.59583 2.11143 3.04917C2.35643 2.5683 2.74738 2.17735 3.22824 1.93235C3.7749 1.65381 4.49054 1.65381 5.92177 1.65381H18.1884C19.6197 1.65381 20.3354 1.65381 20.882 1.93235C21.3628 2.17735 21.7538 2.5683 21.9988 3.04917C22.2773 3.59583 22.2773 4.31146 22.2773 5.7427V19.5427H4.38844C2.97705 19.5427 1.83289 20.6868 1.83289 22.0983ZM1.83289 22.0983C1.83289 23.5097 2.97705 24.6538 4.38844 24.6538H22.2773M8.22177 6.76492H15.8884M8.22177 11.876H15.8884M20.9996 19.5427V24.6538" stroke="#AE3D00" stroke-width="2" stroke-linecap="round" stroke-linejoin="round"/>
</svg>
