<svg width="24" height="26" viewBox="0 0 24 26" fill="none" xmlns="http://www.w3.org/2000/svg">
<path d="M8.44251 19.2106H15.6631M1.22192 16.0841V12.8667C1.22192 11.3703 1.22192 10.6221 1.40009 9.93302C1.55792 9.32266 1.8173 8.7486 2.16547 8.23901C2.55854 7.66374 3.10414 7.20439 4.19534 6.28568L7.32426 3.65135C9.01544 2.22748 9.86099 1.51556 10.7947 1.24189C11.6186 1.00042 12.487 1.00042 13.3109 1.24189C14.2446 1.51556 15.0901 2.2275 16.7813 3.65135L19.9102 6.28568C21.0015 7.20439 21.547 7.66374 21.9401 8.23901C22.2883 8.7486 22.5477 9.32266 22.7054 9.93302C22.8837 10.6221 22.8837 11.3703 22.8837 12.8667V16.0841C22.8837 19.0024 22.8837 20.4617 22.359 21.5763C21.8975 22.5567 21.1611 23.3539 20.2554 23.8535C19.2256 24.4213 17.8776 24.4213 15.1817 24.4213H8.92388C6.22794 24.4213 4.87998 24.4213 3.85026 23.8535C2.9445 23.3539 2.2081 22.5567 1.74658 21.5763C1.22192 20.4617 1.22192 19.0024 1.22192 16.0841Z" stroke="#AE3D00" stroke-width="2" stroke-linecap="round" stroke-linejoin="round"/>
</svg>
