<svg width="42" height="43" viewBox="0 0 42 43" fill="none" xmlns="http://www.w3.org/2000/svg">
<rect x="0.182861" y="0.871094" width="41.74" height="41.74" rx="9" fill="#FFD5A4"/>
<path d="M17.4425 28.2106H24.6631M10.2219 25.0841V21.8667C10.2219 20.3703 10.2219 19.6221 10.4001 18.933C10.5579 18.3227 10.8173 17.7486 11.1655 17.239C11.5585 16.6637 12.1041 16.2044 13.1953 15.2857L16.3243 12.6514C18.0154 11.2275 18.861 10.5156 19.7947 10.2419C20.6186 10.0004 21.487 10.0004 22.3109 10.2419C23.2446 10.5156 24.0901 11.2275 25.7813 12.6514L28.9102 15.2857C30.0015 16.2044 30.547 16.6637 30.9401 17.239C31.2883 17.7486 31.5477 18.3227 31.7054 18.933C31.8837 19.6221 31.8837 20.3703 31.8837 21.8667V25.0841C31.8837 28.0024 31.8837 29.4617 31.359 30.5763C30.8975 31.5567 30.1611 32.3539 29.2554 32.8535C28.2256 33.4213 26.8776 33.4213 24.1817 33.4213H17.9239C15.2279 33.4213 13.88 33.4213 12.8503 32.8535C11.9445 32.3539 11.2081 31.5567 10.7466 30.5763C10.2219 29.4617 10.2219 28.0024 10.2219 25.0841Z" stroke="#AE3D00" stroke-width="2" stroke-linecap="round" stroke-linejoin="round"/>
</svg>
