<svg width="28" height="28" viewBox="0 0 28 28" fill="none" xmlns="http://www.w3.org/2000/svg">
<path d="M12.9663 13.9394H3.8439M3.58533 15.2016L2.07819 19.9539C1.25274 22.5565 0.840016 23.8579 1.13621 24.6592C1.39341 25.3552 1.94585 25.8828 2.62752 26.0837C3.41249 26.3149 4.59809 25.7517 6.96929 24.6255L22.1709 17.4047C24.4854 16.3052 25.6426 15.7557 26.0002 14.992C26.311 14.3286 26.311 13.5501 26.0002 12.8867C25.6426 12.1232 24.4854 11.5734 22.1709 10.4741L6.94307 3.24088C4.57901 2.11796 3.39699 1.5565 2.61281 1.78682C1.93178 1.98685 1.3794 2.51307 1.1213 3.20772C0.824087 4.00761 1.2324 5.30614 2.04905 7.90322L3.58826 12.7983C3.72851 13.2443 3.79865 13.4674 3.82632 13.6954C3.85089 13.8979 3.85064 14.1028 3.82559 14.3052C3.79734 14.5332 3.72668 14.7559 3.58533 15.2016Z" stroke="#AE3D00" stroke-width="2" stroke-linecap="round" stroke-linejoin="round"/>
</svg>
