<svg width="61" height="43" viewBox="0 0 61 43" fill="none" xmlns="http://www.w3.org/2000/svg">
<path d="M42.712 7.23301V7.25423L48.7213 10.7234L48.7398 10.7129L60.7951 17.6722V24.7285L42.7391 35.1521L42.7119 35.1364V35.1679L30.6566 42.1274L0.51828 24.7285V17.6722L30.6566 0.273315L42.712 7.23301Z" fill="#FFA63F"/>
<rect width="6.96004" height="6.96004" transform="matrix(0.866044 0.499967 -0.866044 0.499967 36.7029 3.75317)" fill="#FFFAF3"/>
<rect width="6.96004" height="6.96004" transform="matrix(0.866044 0.499967 -0.866044 0.499967 42.7306 7.23291)" fill="#FFFAF3"/>
<rect width="6.96004" height="6.96004" transform="matrix(0.866044 0.499967 -0.866044 0.499967 48.7583 10.7128)" fill="#FFFAF3"/>
<rect width="6.96004" height="6.96004" transform="matrix(0.866044 0.499967 -0.866044 0.499967 24.6475 3.75317)" fill="#FFFAF3"/>
<rect width="6.96004" height="6.96004" transform="matrix(0.866044 0.499967 -0.866044 0.499967 36.7029 10.7126)" fill="#FFFAF3"/>
<rect width="6.96004" height="6.96004" transform="matrix(0.866044 0.499967 -0.866044 0.499967 48.7583 17.6722)" fill="#FFFAF3"/>
<rect width="6.96004" height="6.96004" transform="matrix(0.866044 0.499967 -0.866044 0.499967 18.6198 7.23291)" fill="#FFFAF3"/>
<rect width="6.96004" height="6.96004" transform="matrix(0.866044 0.499967 -0.866044 0.499967 24.6475 10.7128)" fill="#FFFAF3"/>
<rect width="6.96004" height="6.96004" transform="matrix(0.866044 0.499967 -0.866044 0.499967 36.7029 17.6722)" fill="#FFFAF3"/>
<rect width="6.96004" height="6.96004" transform="matrix(0.866044 0.499967 -0.866044 0.499967 42.7306 21.1521)" fill="#FFFAF3"/>
<rect width="6.96004" height="6.96004" transform="matrix(0.866044 0.499967 -0.866044 0.499967 12.5921 10.7128)" fill="#FFFAF3"/>
<rect width="6.96004" height="6.96004" transform="matrix(0.866044 0.499967 -0.866044 0.499967 24.6475 17.6722)" fill="#FFFAF3"/>
<rect width="6.96004" height="6.96004" transform="matrix(0.866044 0.499967 -0.866044 0.499967 36.7029 24.6318)" fill="#FFFAF3"/>
<rect width="6.96004" height="6.96004" transform="matrix(0.866044 0.499967 -0.866044 0.499967 12.5921 17.6722)" fill="#FFFAF3"/>
<rect width="6.96004" height="6.96004" transform="matrix(0.866044 0.499967 -0.866044 0.499967 18.6198 21.1521)" fill="#FFFAF3"/>
<rect width="6.96004" height="6.96004" transform="matrix(0.866044 0.499967 -0.866044 0.499967 24.6475 24.6318)" fill="#FFFAF3"/>
<rect width="6.96004" height="6.96004" transform="matrix(0.866044 0.499967 -0.866044 0.499967 30.6567 21.1627)" fill="#E6F6FF"/>
<rect width="6.96004" height="6.96004" transform="matrix(0.866044 0.499967 -0.866044 0.499967 42.7306 14.1925)" fill="#E6F6FF"/>
<rect width="6.96004" height="6.96004" transform="matrix(0.866044 0.499967 -0.866044 0.499967 30.6752 7.23291)" fill="#E6F6FF"/>
<rect width="6.96004" height="6.96004" transform="matrix(0.866044 0.499967 -0.866044 0.499967 18.6468 14.1769)" fill="#E6F6FF"/>
<rect width="6.96004" height="6.96004" transform="matrix(0.866044 0.499967 -0.866044 0.499967 30.6752 14.1925)" fill="#FFEBEB"/>
<path d="M29.8028 18.1748L27.8601 17.9939L29.6297 17.4857L29.3164 16.3607L30.701 17.1601L32.4557 16.6433L31.5605 17.6562L32.9451 18.4556L30.9965 18.2747L30.1162 19.2963L29.8028 18.1748Z" fill="#FF686C"/>
<rect width="6.96004" height="6.96004" transform="matrix(0.866044 0.499967 -0.866044 0.499967 6.5644 14.1925)" fill="#68AEFF"/>
<rect width="6.96004" height="6.96004" transform="matrix(0.866044 0.499967 -0.866044 0.499967 30.6752 0.273315)" fill="#68AEFF"/>
<rect width="6.96004" height="6.96004" transform="matrix(0.866044 0.499967 -0.866044 0.499967 30.6752 28.1117)" fill="#68AEFF"/>
<rect width="6.96004" height="6.96004" transform="matrix(0.866044 0.499967 -0.866044 0.499967 54.786 14.1925)" fill="#68AEFF"/>
<rect width="6.96004" height="6.96004" transform="matrix(0.866044 0.499967 -0.866044 0.499967 42.7576 21.1365)" fill="#FF686C"/>
<rect width="6.96004" height="6.96004" transform="matrix(0.866044 0.499967 -0.866044 0.499967 42.7121 7.24353)" fill="#FF686C"/>
<rect width="6.96004" height="6.96004" transform="matrix(0.866044 0.499967 -0.866044 0.499967 18.6198 7.23291)" fill="#FF686C"/>
<rect width="6.96004" height="6.96004" transform="matrix(0.866044 0.499967 -0.866044 0.499967 18.6198 21.1521)" fill="#FF686C"/>
</svg>
