<svg width="96" height="69" viewBox="0 0 96 69" fill="none" xmlns="http://www.w3.org/2000/svg">
<path d="M48.0056 5.5907L4.34924 30.7935V33.1396L48.0056 7.9368V5.5907Z" fill="#FFFAF3"/>
<path d="M91.6619 30.7935L48.0056 5.5907V7.9368L91.6619 33.1396V30.7935Z" fill="#FFFAF3"/>
<mask id="path-3-outside-1_152_8" maskUnits="userSpaceOnUse" x="0.348877" y="0.590576" width="96" height="69" fill="black">
<rect fill="white" x="0.348877" y="0.590576" width="96" height="69"/>
<path d="M91.6614 30.7937V38.8201L48.0051 64.0222L4.34888 38.8201V30.7937L48.0051 5.59058L91.6614 30.7937Z"/>
</mask>
<path d="M91.6614 30.7937V38.8201L48.0051 64.0222L4.34888 38.8201V30.7937L48.0051 5.59058L91.6614 30.7937Z" fill="#FFA63F"/>
<path d="M91.6614 30.7937H95.6614V28.4842L93.6613 27.3295L91.6614 30.7937ZM91.6614 38.8201L93.6612 42.2843L95.6614 41.1296V38.8201H91.6614ZM48.0051 64.0222L46.0053 67.4864L48.0051 68.6409L50.005 67.4864L48.0051 64.0222ZM4.34888 38.8201H0.348877V41.1296L2.34904 42.2843L4.34888 38.8201ZM4.34888 30.7937L2.34899 27.3295L0.348877 28.4842V30.7937H4.34888ZM48.0051 5.59058L50.005 2.12641L48.0051 0.971858L46.0052 2.12641L48.0051 5.59058ZM91.6614 30.7937H87.6614V38.8201H91.6614H95.6614V30.7937H91.6614ZM91.6614 38.8201L89.6615 35.3559L46.0053 60.558L48.0051 64.0222L50.005 67.4864L93.6612 42.2843L91.6614 38.8201ZM48.0051 64.0222L50.005 60.558L6.34871 35.3559L4.34888 38.8201L2.34904 42.2843L46.0053 67.4864L48.0051 64.0222ZM4.34888 38.8201H8.34888V30.7937H4.34888H0.348877V38.8201H4.34888ZM4.34888 30.7937L6.34877 34.2579L50.005 9.05474L48.0051 5.59058L46.0052 2.12641L2.34899 27.3295L4.34888 30.7937ZM48.0051 5.59058L46.0052 9.05474L89.6615 34.2579L91.6614 30.7937L93.6613 27.3295L50.005 2.12641L48.0051 5.59058Z" fill="#FFD5A4" mask="url(#path-3-outside-1_152_8)"/>
<rect width="50.409" height="50.409" transform="matrix(0.866044 0.499967 -0.866044 0.499967 48.0052 5.59082)" fill="#FFFAF3"/>
<rect width="10.0818" height="10.0818" transform="matrix(0.866044 0.499967 -0.866044 0.499967 48.0056 5.59082)" fill="#FF686C"/>
<rect width="10.0818" height="10.0818" transform="matrix(0.866044 0.499967 -0.866044 0.499967 56.7367 10.6313)" fill="#FFFAF3"/>
<rect width="10.0818" height="10.0818" transform="matrix(0.866044 0.499967 -0.866044 0.499967 65.468 15.6718)" fill="#68AEFF"/>
<rect width="10.0818" height="10.0818" transform="matrix(0.866044 0.499967 -0.866044 0.499967 74.1993 20.7125)" fill="#FFFAF3"/>
<rect width="10.0818" height="10.0818" transform="matrix(0.866044 0.499967 -0.866044 0.499967 82.9305 25.7532)" fill="#FF686C"/>
<rect width="10.0818" height="10.0818" transform="matrix(0.866044 0.499967 -0.866044 0.499967 39.2739 10.6313)" fill="#FFFAF3"/>
<rect width="10.0818" height="10.0818" transform="matrix(0.866044 0.499967 -0.866044 0.499967 48.0052 15.6718)" fill="#E6F6FF"/>
<rect width="10.0818" height="10.0818" transform="matrix(0.866044 0.499967 -0.866044 0.499967 56.7365 20.7125)" fill="#FFFAF3"/>
<rect width="10.0818" height="10.0818" transform="matrix(0.866044 0.499967 -0.866044 0.499967 65.468 25.7532)" fill="#E6F6FF"/>
<rect width="10.0818" height="10.0818" transform="matrix(0.866044 0.499967 -0.866044 0.499967 74.1993 30.7937)" fill="#FFFAF3"/>
<rect width="10.0818" height="10.0818" transform="matrix(0.866044 0.499967 -0.866044 0.499967 30.5428 15.6718)" fill="#68AEFF"/>
<rect width="10.0818" height="10.0818" transform="matrix(0.866044 0.499967 -0.866044 0.499967 39.2739 20.7125)" fill="#FFFAF3"/>
<rect width="10.0818" height="10.0818" transform="matrix(0.866044 0.499967 -0.866044 0.499967 48.0052 25.7532)" fill="#FFEBEB"/>
<rect width="10.0818" height="10.0818" transform="matrix(0.866044 0.499967 -0.866044 0.499967 56.7365 30.7937)" fill="#FFFAF3"/>
<rect width="10.0818" height="10.0818" transform="matrix(0.866044 0.499967 -0.866044 0.499967 65.468 35.8341)" fill="#68AEFF"/>
<rect width="10.0818" height="10.0818" transform="matrix(0.866044 0.499967 -0.866044 0.499967 21.8115 20.7125)" fill="#FFFAF3"/>
<rect width="10.0818" height="10.0818" transform="matrix(0.866044 0.499967 -0.866044 0.499967 30.5428 25.7532)" fill="#E6F6FF"/>
<rect width="10.0818" height="10.0818" transform="matrix(0.866044 0.499967 -0.866044 0.499967 39.2739 30.7937)" fill="#FFFAF3"/>
<rect width="10.0818" height="10.0818" transform="matrix(0.866044 0.499967 -0.866044 0.499967 48.0052 35.8341)" fill="#E6F6FF"/>
<rect width="10.0818" height="10.0818" transform="matrix(0.866044 0.499967 -0.866044 0.499967 56.7365 40.8749)" fill="#FFFAF3"/>
<rect width="10.0818" height="10.0818" transform="matrix(0.866044 0.499967 -0.866044 0.499967 13.0802 25.7532)" fill="#FF686C"/>
<rect width="10.0818" height="10.0818" transform="matrix(0.866044 0.499967 -0.866044 0.499967 21.8115 30.7937)" fill="#FFFAF3"/>
<rect width="10.0818" height="10.0818" transform="matrix(0.866044 0.499967 -0.866044 0.499967 30.5428 35.8341)" fill="#68AEFF"/>
<rect width="10.0818" height="10.0818" transform="matrix(0.866044 0.499967 -0.866044 0.499967 39.2739 40.8749)" fill="#FFFAF3"/>
<rect width="10.0818" height="10.0818" transform="matrix(0.866044 0.499967 -0.866044 0.499967 48.0052 45.9153)" fill="#FF686C"/>
<path d="M46.4678 31.6805L43.2195 31.378L46.1784 30.5282L45.6545 28.6473L47.9697 29.9838L50.9037 29.1197L49.4068 30.8134L51.722 32.15L48.4637 31.8475L46.9917 33.5557L46.4678 31.6805Z" fill="#FF686C"/>
</svg>
