<svg width="31" height="31" viewBox="0 0 31 31" fill="none" xmlns="http://www.w3.org/2000/svg">
<rect x="0.315674" y="0.674072" width="30.0349" height="30.0349" rx="7" fill="#FFA63F"/>
<path d="M21.333 7.69165L24.333 10.6917M24.333 10.6917L21.333 13.6917M24.333 10.6917H20.333C19.4037 10.6917 18.939 10.6917 18.5526 10.7685C16.9659 11.0841 15.7255 12.3245 15.4099 13.9113C15.333 14.2977 15.333 14.7624 15.333 15.6917C15.333 16.621 15.333 17.0857 15.2561 17.4721C14.9405 19.0588 13.7001 20.2991 12.1134 20.6147C11.727 20.6916 11.2623 20.6917 10.333 20.6917H6.33301M21.333 23.6917L24.333 20.6917M24.333 20.6917L21.333 17.6917M24.333 20.6917H20.333C19.4037 20.6917 18.939 20.6916 18.5526 20.6147C18.4787 20.6 18.4054 20.5833 18.333 20.5646M6.33301 10.6917H10.333C11.2623 10.6917 11.727 10.6917 12.1134 10.7685C12.1874 10.7832 12.2606 10.8 12.333 10.8186" stroke="#FFFAF3" stroke-width="2" stroke-linecap="round" stroke-linejoin="round"/>
</svg>
