<svg width="26" height="26" viewBox="0 0 26 26" fill="none" xmlns="http://www.w3.org/2000/svg">
<path d="M1.97754 16.1965C1.97754 15.4808 1.97754 15.123 2.1168 14.8497C2.23932 14.6092 2.43479 14.4139 2.67522 14.2913C2.94855 14.152 3.30636 14.152 4.02198 14.152H5.04421C5.75983 14.152 6.11764 14.152 6.39097 14.2913C6.6314 14.4139 6.82687 14.6092 6.94938 14.8497C7.08865 15.123 7.08865 15.4808 7.08865 16.1965V22.3298C7.08865 23.0455 7.08865 23.4033 6.94938 23.6766C6.82687 23.9171 6.6314 24.1125 6.39097 24.235C6.11764 24.3743 5.75983 24.3743 5.04421 24.3743H4.02198C3.30636 24.3743 2.94855 24.3743 2.67522 24.235C2.43479 24.1125 2.23932 23.9171 2.1168 23.6766C1.97754 23.4033 1.97754 23.0455 1.97754 22.3298V16.1965Z" stroke="#AE3D00" stroke-width="2" stroke-linecap="round" stroke-linejoin="round"/>
<path d="M10.922 3.41871C10.922 2.70309 10.922 2.34528 11.0613 2.07195C11.1838 1.83152 11.3792 1.63605 11.6196 1.51353C11.893 1.37427 12.2507 1.37427 12.9664 1.37427H13.9886C14.7043 1.37427 15.0621 1.37427 15.3354 1.51353C15.5759 1.63605 15.7713 1.83152 15.8938 2.07195C16.0331 2.34528 16.0331 2.70309 16.0331 3.41871V22.3298C16.0331 23.0455 16.0331 23.4033 15.8938 23.6766C15.7713 23.9171 15.5759 24.1125 15.3354 24.235C15.0621 24.3743 14.7043 24.3743 13.9886 24.3743H12.9664C12.2507 24.3743 11.893 24.3743 11.6196 24.235C11.3792 24.1125 11.1838 23.9171 11.0613 23.6766C10.922 23.4033 10.922 23.0455 10.922 22.3298V3.41871Z" stroke="#AE3D00" stroke-width="2" stroke-linecap="round" stroke-linejoin="round"/>
<path d="M19.8664 11.0854C19.8664 10.3697 19.8664 10.0119 20.0057 9.73861C20.1282 9.49819 20.3236 9.30271 20.5641 9.1802C20.8374 9.04093 21.1952 9.04093 21.9109 9.04093H22.9331C23.6488 9.04093 24.0066 9.04093 24.2799 9.1802C24.5204 9.30271 24.7157 9.49819 24.8383 9.73861C24.9775 10.0119 24.9775 10.3697 24.9775 11.0854V22.3298C24.9775 23.0455 24.9775 23.4033 24.8383 23.6766C24.7157 23.9171 24.5204 24.1125 24.2799 24.235C24.0066 24.3743 23.6488 24.3743 22.9331 24.3743H21.9109C21.1952 24.3743 20.8374 24.3743 20.5641 24.235C20.3236 24.1125 20.1282 23.9171 20.0057 23.6766C19.8664 23.4033 19.8664 23.0455 19.8664 22.3298V11.0854Z" stroke="#AE3D00" stroke-width="2" stroke-linecap="round" stroke-linejoin="round"/>
</svg>
