<svg width="43" height="42" viewBox="0 0 43 42" fill="none" xmlns="http://www.w3.org/2000/svg">
<rect x="0.605225" y="0.00195312" width="41.7446" height="41.7446" rx="9" fill="#FFD5A4"/>
<path d="M9.97754 24.1965C9.97754 23.4808 9.97754 23.123 10.1168 22.8497C10.2393 22.6092 10.4348 22.4139 10.6752 22.2913C10.9485 22.152 11.3064 22.152 12.022 22.152H13.0442C13.7598 22.152 14.1176 22.152 14.391 22.2913C14.6314 22.4139 14.8269 22.6092 14.9494 22.8497C15.0886 23.123 15.0887 23.4808 15.0887 24.1965V30.3298C15.0887 31.0455 15.0886 31.4033 14.9494 31.6766C14.8269 31.9171 14.6314 32.1125 14.391 32.235C14.1176 32.3743 13.7598 32.3743 13.0442 32.3743H12.022C11.3064 32.3743 10.9485 32.3743 10.6752 32.235C10.4348 32.1125 10.2393 31.9171 10.1168 31.6766C9.97754 31.4033 9.97754 31.0455 9.97754 30.3298V24.1965Z" stroke="#AE3D00" stroke-width="2" stroke-linecap="round" stroke-linejoin="round"/>
<path d="M18.922 11.4187C18.922 10.7031 18.922 10.3453 19.0613 10.0719C19.1838 9.83152 19.3792 9.63605 19.6196 9.51353C19.893 9.37427 20.2507 9.37427 20.9664 9.37427H21.9886C22.7043 9.37427 23.0621 9.37427 23.3354 9.51353C23.5759 9.63605 23.7713 9.83152 23.8938 10.0719C24.0331 10.3453 24.0331 10.7031 24.0331 11.4187V30.3298C24.0331 31.0455 24.0331 31.4033 23.8938 31.6766C23.7713 31.9171 23.5759 32.1125 23.3354 32.235C23.0621 32.3743 22.7043 32.3743 21.9886 32.3743H20.9664C20.2507 32.3743 19.893 32.3743 19.6196 32.235C19.3792 32.1125 19.1838 31.9171 19.0613 31.6766C18.922 31.4033 18.922 31.0455 18.922 30.3298V11.4187Z" stroke="#AE3D00" stroke-width="2" stroke-linecap="round" stroke-linejoin="round"/>
<path d="M27.8664 19.0854C27.8664 18.3697 27.8664 18.0119 28.0057 17.7386C28.1282 17.4982 28.3236 17.3027 28.5641 17.1802C28.8374 17.0409 29.1952 17.0409 29.9109 17.0409H30.9331C31.6488 17.0409 32.0066 17.0409 32.2799 17.1802C32.5204 17.3027 32.7157 17.4982 32.8383 17.7386C32.9775 18.0119 32.9775 18.3697 32.9775 19.0854V30.3298C32.9775 31.0455 32.9775 31.4033 32.8383 31.6766C32.7157 31.9171 32.5204 32.1125 32.2799 32.235C32.0066 32.3743 31.6488 32.3743 30.9331 32.3743H29.9109C29.1952 32.3743 28.8374 32.3743 28.5641 32.235C28.3236 32.1125 28.1282 31.9171 28.0057 31.6766C27.8664 31.4033 27.8664 31.0455 27.8664 30.3298V19.0854Z" stroke="#AE3D00" stroke-width="2" stroke-linecap="round" stroke-linejoin="round"/>
</svg>
